PathFileType	4	(X/Y/Z)	C:/Users/beibeiliu/ov580/test_trc/User2\sequence.34_training_dense_right.trc
DataRate	CameraRate	NumFrames	NumMarkers	Units	OrigDataRate	OrigDataStartFrame	OrigNumFrames
120	120	18	19	mm	120	58	144
Frame#	Time	ThumbCMC			ThumbMCP			ThumbIP			ThumbTip			IndexMCP			IndexPIP			IndexTip			MiddleMCP			MiddlePIP			MiddleTip			RingMCP			RingPIP			RingTip			PinkyMCP			PinkyPIP			PinkyTip			BackHand1			BackHand2			BackHand3	
		X0	Y0	Z0	X1	Y1	Z1	X2	Y2	Z2	X3	Y3	Z3	X4	Y4	Z4	X5	Y5	Z5	X6	Y6	Z6	X7	Y7	Z7	X8	Y8	Z8	X9	Y9	Z9	X10	Y10	Z10	X11	Y11	Z11	X12	Y12	Z12	X13	Y13	Z13	X14	Y14	Z14	X15	Y15	Z15	X16	Y16	Z16	X17	Y17	Z17	X18	Y18	Z18	
57	0.475	123.867	58.6058	-47.8992	109.79	80.3238	-71.2445	94.8292	95.1992	-99.6006	83.5203	96.5688	-116.587	104.476	54.2552	-130.165	73.8281	42.1414	-127.496	81.8738	38.9881	-91.0754	105.349	28.7494	-136.324	70.4843	21.4904	-124.626	80.7463	20.6008	-87.2177	102.424	5.55135	-129.816	73.5743	3.06103	-114.861	88.3094	12.8159	-81.0723	101.54	-12.5831	-120.458	78.6759	-5.92875	-99.0201	97.6533	2.42416	-69.6559	153.841	11.3946	-89.8092	163.986	5.70079	-60.1505	152.507	41.1525	-69.5663	
58	0.483333	125.116	57.9903	-51.1039	112.435	79.7781	-69.3389	100.995	95.9535	-97.4666	90.3017	95.7659	-122.725	104.97	51.7567	-130.072	72.3883	44.5005	-125.235	81.41	41.676	-91.4694	107.05	29.614	-135.903	71.2612	18.5134	-123.741	82.0807	24.9614	-84.8514	101.459	9.95941	-130.551	74.5452	1.91755	-112.633	87.6426	10.7263	-81.9714	103.261	-12.4937	-120.422	78.4208	-7.96475	-98.0756	94.9169	0.354138	-69.9091	153.225	7.06718	-89.3552	164.793	4.07353	-55.3455	153.152	40.968	-67.7355	
59	0.491667	124.874	56.064	-50.6056	114.15	81.3551	-70.9828	103.643	87.3113	-103.714	93.0267	89.9555	-125.462	104.336	55.3924	-130.403	74.9093	43.3561	-127.26	84.0707	38.3174	-91.7124	103.474	29.332	-137.398	71.0619	20.4999	-123.987	81.3431	22.1921	-86.5507	100.69	6.28366	-131.595	73.6121	1.86698	-113.296	89.1036	7.84739	-81.5822	105.114	-13.0584	-120.926	78.3284	-10.3251	-99.5125	93.876	0.40099	-74.1278	151.902	9.21193	-93.9982	164.857	4.28853	-56.5638	154.263	39.7911	-67.856	
60	0.5	123.789	58.7974	-48.2179	113.207	75.2999	-73.0354	101.41	85.8169	-104.922	91.2247	82.7965	-131.296	103.607	51.7892	-133.473	72.8671	43.5962	-124.486	83.3877	42.6065	-89.7593	106.751	31.771	-136.561	71.7802	24.5111	-126.162	86.2777	22.3074	-84.2618	97.8618	5.23708	-132.147	74.938	2.33731	-113.523	91.6795	8.53248	-81.2482	104.853	-14.143	-120.654	79.1908	-5.15749	-98.7926	92.9562	-2.8563	-72.3604	154.059	7.39586	-93.4861	165.029	4.05188	-58.5782	153.76	40.9488	-71.6674	
61	0.508333	122.008	57.7098	-52.5987	105.801	77.9667	-72.5742	92.5439	81.4636	-107.564	85.054	69.7093	-129.284	105.556	52.5868	-130.876	73.7803	38.6196	-126.462	79.6231	42.161	-93.1799	106.84	26.6726	-135.953	70.2426	22.2185	-125.013	81.6493	23.8973	-87.1362	99.5091	7.67893	-131.138	73.9959	2.96777	-116.232	89.2183	8.12544	-82.0389	102.258	-11.0272	-121.367	78.7531	-10.7466	-101.208	95.1471	1.52195	-70.5639	151.921	7.15399	-94.112	164.101	4.34298	-59.7435	151.587	43.603	-69.8593	
62	0.516667	119.439	57.7026	-51.263	99.9773	72.5248	-73.3164	84.6721	74.4842	-109.069	75.7526	64.6546	-129.916	104.087	47.2331	-130.355	74.1506	36.8084	-129.095	77.3769	41.4773	-91.4744	100.67	25.3893	-139.303	69.0899	19.9041	-125.373	82.4824	20.6351	-85.065	100.284	2.56543	-130.51	71.5577	3.23937	-112.232	91.4923	8.76013	-79.6622	103.473	-16.6154	-120.375	77.1992	-9.99099	-98.383	94.291	1.61395	-72.1253	151.697	7.41594	-91.2072	164.808	2.18936	-58.0047	149.048	40.3553	-71.528	
63	0.525	115.983	57.7311	-53.303	94.598	69.8767	-74.5204	76.4011	72.6652	-105.527	67.055	58.6543	-130.741	101.605	45.5642	-130.866	67.7289	40.1348	-126.516	78.1008	37.0529	-90.8961	101.046	23.993	-136.716	68.8918	17.2499	-126.688	81.0408	18.5349	-83.0779	99.2757	1.12759	-129.728	71.8854	-1.98054	-112.996	87.2188	5.88508	-81.7419	101.987	-17.0849	-119.28	77.0698	-10.4538	-100.745	90.5829	-1.3247	-71.1414	151.146	7.11037	-94.8708	162.646	3.31148	-57.3105	147.096	42.0516	-71.34	
64	0.533333	114.932	55.3477	-48.2269	89.0344	69.8858	-75.1084	68.6287	70.1684	-100.792	62.119	53.4435	-126.726	100.541	51.9377	-130.409	66.295	40.6371	-124.409	76.3404	37.1693	-90.5043	98.8762	28.855	-136.384	67.4783	16.1794	-124.664	74.7199	20.5773	-85.2327	97.0362	3.16242	-129.661	69.0909	-1.73599	-108.775	84.2803	8.05633	-81.1514	99.878	-13.9403	-119.145	74.9112	-10.4484	-96.9704	89.8599	-3.31891	-69.3406	149.298	6.08347	-95.0186	162.478	3.41532	-58.8315	147.583	39.988	-69.6732	
65	0.541667	111.235	55.9045	-49.0458	84.645	62.397	-71.0031	63.0732	63.7822	-98.4089	55.793	46.8726	-120.769	99.7907	51.9223	-129.069	68.8076	37.0972	-125.477	74.024	35.2235	-92.2686	96.8677	25.0672	-137.911	66.5447	16.9859	-125.03	71.8143	19.8974	-86.3711	93.3804	6.29797	-129.138	68.876	2.52357	-110.751	85.6264	10.7994	-78.9261	97.4032	-12.6494	-118.67	74.897	-11.3037	-93.3177	90.9036	-1.5698	-70.7801	149.43	7.17256	-91.5295	160.263	5.37571	-56.3753	148.54	40.282	-71.9449	
66	0.55	107.416	53.788	-47.9476	77.9976	55.2375	-67.7898	55.3531	52.4251	-98.9518	51.8242	33.8147	-118.473	96.5424	49.1236	-129.146	66.7651	40.9336	-127.682	73.6082	37.2685	-88.772	98.9836	27.4012	-134.531	65.0511	16.5827	-124.122	74.2711	17.4511	-82.7993	91.1794	3.22269	-128.911	67.881	-0.65026	-106.513	83.6972	8.41654	-77.9471	98.2055	-13.9315	-118.17	75.0866	-12.3303	-96.7794	92.7831	-5.06553	-67.3476	149.177	6.41503	-94.5896	159.559	3.75423	-58.7978	146.098	39.9426	-67.2074	
67	0.558333	104.639	52.6264	-46.1424	73.9964	49.4801	-67.552	54.2788	40.7952	-97.0368	44.6956	27.3508	-116.521	96.8824	49.3801	-128.135	66.3786	39.8637	-126.009	72.7184	33.8187	-90.4746	94.3535	29.9949	-134.646	65.681	15.5198	-124.45	72.7159	14.6455	-84.7461	96.9	3.21956	-127.472	68.8741	-1.36952	-110.678	83.1383	5.7128	-77.8158	99.9824	-16.5255	-116.906	75.1736	-10.3316	-91.7757	92.2981	-4.74087	-67.2407	149.052	8.95519	-89.8741	162.523	3.2176	-55.9254	144.496	43.9334	-67.8599	
68	0.566667	104.875	51.6277	-44.6924	75.872	49.9842	-63.4399	48.3188	48.7453	-91.4372	38.8735	36.2307	-113.493	99.0817	49.9594	-125.381	69.1814	37.5437	-128.676	69.2585	36.5437	-91.8358	95.8178	26.6854	-135.658	66.6306	15.2719	-123.872	73.53	15.4048	-83.5413	95.8473	2.26032	-127.638	69.3053	-0.0740465	-110.625	84.2557	8.34855	-75.6869	99.1962	-14.0774	-116.186	76.7479	-11.3277	-95.8491	94.5334	-0.651313	-67.0669	148.898	11.4731	-88.4014	161.145	5.45327	-58.2026	145.747	40.0537	-67.9772	
69	0.575	110.857	52.3578	-48.4389	83.5383	59.7712	-62.8493	57.6485	66.7823	-90.9238	43.3714	60.2613	-108.572	96.7993	52.439	-128.3	68.0955	40.8094	-126.764	69.4086	38.1898	-91.1658	98.1787	29.5012	-133.97	65.605	19.7136	-123.012	76.1124	16.0142	-82.8344	97.6811	4.34988	-127.061	70.0268	2.4126	-112.021	84.9949	5.13921	-76.7686	97.6193	-11.0183	-116.115	75.5337	-13.8998	-94.3957	92.0401	-3.22443	-68.5337	149.527	8.41273	-91.2381	161.204	8.18468	-53.8277	145.805	42.1133	-62.9597	
70	0.583333	117.59	55.1505	-46.32	95.722	70.3752	-66.1905	75.0894	87.621	-90.7957	60.8702	86.5785	-112.978	98.7688	47.942	-130.082	69.2644	41.5445	-125.388	74.4076	42.478	-87.2807	101.474	25.3529	-134.496	67.3028	22.3304	-125.031	75.1191	18.0177	-84.7326	97.6004	6.37841	-126.612	69.425	4.00303	-112.589	83.5553	12.1149	-78.4311	97.1794	-11.3059	-116.77	74.6065	-8.44901	-91.9992	90.0659	2.3015	-70.0838	148.228	5.74824	-91.3347	159.902	5.0175	-58.007	150.419	40.1885	-67.5931	
71	0.591667	122.112	57.3058	-49.6821	107.366	78.8158	-66.8928	92.1563	90.5349	-97.8701	78.6031	98.7113	-120.41	101.31	49.2742	-130.566	71.2702	38.0116	-124.125	75.3438	41.1778	-90.7788	99.0061	27.9945	-136.344	67.7466	21.4538	-125.416	77.8735	24.1463	-83.2554	96.2389	4.53919	-127.92	71.0349	-0.131292	-112.106	86.8482	11.5304	-77.4243	99.9609	-14.4545	-115.431	74.7174	-6.97355	-96.8957	89.753	1.12354	-71.6804	151.535	3.91138	-89.4779	160.951	3.93214	-53.0928	149.446	38.4109	-65.0396	
72	0.6	123.654	56.4815	-47.1169	112.721	78.6983	-71.8531	101.086	92.2455	-101.088	89.1398	98.1282	-123.597	104.007	47.6255	-130.052	70.6861	37.858	-123.412	81.633	38.4818	-89.5311	100.766	25.9569	-136.178	68.4999	17.0809	-123.334	77.5656	22.2525	-85.8721	99.1059	4.82504	-128.778	70.4258	4.4828	-111.62	86.4524	7.68677	-78.7178	101.841	-12.6768	-116.788	75.7129	-6.32274	-94.4468	93.2684	-0.768683	-67.5668	151.317	4.57477	-89.9203	160.628	2.45962	-59.126	148.714	41.2382	-70.299	
73	0.608333	124.658	57.3492	-51.3766	114.943	82.2333	-70.681	103.369	89.6906	-102.524	93.83	92.6033	-126.069	102.496	49.5817	-131.264	70.4056	43.3701	-124.371	79.6383	40.2284	-90.4838	101.671	27.6377	-136.444	70.542	19.3049	-125.695	79.0107	22.4436	-85.9442	99.8402	6.32432	-128.878	69.9735	0.737413	-111.63	85.9272	8.46945	-79.1329	101.249	-13.8896	-116.946	75.2498	-10.5979	-94.6881	93.9651	-0.349346	-67.1309	148.874	7.04988	-91.5719	160.056	4.10824	-55.8315	149.124	40.4945	-67.1857	
74	0.616667	123.232	56.9827	-50.555	113.599	77.5892	-75.198	101.588	84.5524	-104.971	91.6239	80.2042	-130.153	102.559	49.8849	-130.879	70.5747	41.2114	-123.623	82.9739	37.4914	-90.9969	101.191	27.7033	-136.168	69.9235	17.6076	-122.756	79.9005	19.8761	-85.2822	100.596	5.28028	-129.334	70.7484	1.68677	-108.916	83.8347	8.53575	-79.982	101.555	-13.501	-117.569	75.4994	-8.1059	-93.5722	95.4558	2.12481	-69.8036	150.099	4.6351	-93.2651	160.679	4.24334	-55.4339	150.032	40.9593	-71.6874	
